<svg xmlns="http://www.w3.org/2000/svg" width="256" height="256"><path fill-opacity=".016" d="M0 128.004v128.004l128.25-.254 128.25-.254.254-127.75L257.008 0H0v128.004m.485.496c0 70.4.119 99.053.265 63.672.146-35.38.146-92.98 0-128C.604 29.153.485 58.1.485 128.5" fill="#1976D2" fill-rule="evenodd"/><path fill-opacity=".259" d="M7.55 35.115c-2.172.515-4.76 1.67-5.75 2.566-3.495 3.163-2.221 6.916 9.076 26.737C34.779 106.353 70 172.668 70 175.736c0 2.79-4.358 4.178-28.708 9.143-22.457 4.578-26.792 6.28-26.792 10.513 0 5.71 6.501 7.834 28.286 9.242l10.287.665 2.09 4.858c1.149 2.672 3.623 6.204 5.498 7.85L64.07 221l46.215-.004c53.519-.004 50.516.528 55.369-9.803l2.777-5.91 11.035-.61c13.094-.724 22.164-2.267 25.343-4.311 3.385-2.178 2.695-7.187-1.309-9.493-1.65-.95-12.798-3.765-24.774-6.255-24.679-5.132-27.312-6.072-27.04-9.658.103-1.351 3.996-9.656 8.653-18.456 6.299-11.904 9.067-16.193 10.813-16.753 31.754-10.188 46.102-16.022 60.146-24.458 9.854-5.919 19.61-15.249 22.512-21.528 2.384-5.159 2.915-13.745 1.217-19.666-3.358-11.71-15.615-18.597-31.89-17.921l-7.831.326 3.518-6.728c3.96-7.575 3.684-10.083-1.484-13.469-2.601-1.705-8.291-1.812-104.296-1.964-60.289-.096-103.149.219-105.494.776m6.2 7.62c-2.613.206-4.75.614-4.75.907 0 .293 3.938 7.452 8.75 15.909l8.75 15.376 48.25.037c47.461.035 48.284.07 50.323 2.109 1.867 1.867 1.929 2.291.629 4.25l-1.446 2.177-46.128.26c-25.37.143-46.128.413-46.128.6 0 .188 3.791 7.271 8.425 15.74l8.425 15.4 29.717.5c26.889.452 29.822.667 30.82 2.25.804 1.276.804 2.224-.001 3.5-.999 1.585-3.655 1.775-28.244 2.016-14.928.146-27.142.528-27.142.848 0 .321 3.262 6.831 7.25 14.467l7.25 13.885 10.679.017C90.093 153 93 153.95 93 157.5c0 3.275-3.015 4.5-11.071 4.5-4.361 0-7.929.18-7.929.401 0 .22 1.121 2.808 2.49 5.75 2.997 6.437 3.122 9.333.582 13.499-2.499 4.099-8.53 6.341-27.559 10.247-8.127 1.668-14.968 3.225-15.203 3.46-.235.235 6.687.797 15.381 1.25 30.372 1.58 139.895.645 138.07-1.179-.2-.2-6.865-1.717-14.812-3.372-19.81-4.124-24.059-5.518-27.376-8.98-4.3-4.488-3.881-8.85 1.943-20.224 15.637-30.538 50.075-93.748 60.616-111.257l4.873-8.095-5.752-.641c-5.984-.668-185.157-.782-193.503-.124m202.396 22.314c-4.036.542-6.804 1.468-7.588 2.54C206.839 69.941 175 128.465 175 129.274c0 .715 15.546-4.532 27.834-9.395 18.989-7.515 37.117-19.209 41.983-27.083 6.275-10.153 1.793-24.032-8.62-26.692-6.162-1.574-13.357-1.953-20.051-1.055M64.115 209.25c.651 1.238 1.68 2.581 2.285 2.985.605.404 20.562.741 44.35.75 41.927.015 43.311-.046 45.25-1.985 1.1-1.1 2-2.45 2-3 0-.653-16.512-1-47.535-1H62.93l1.185 2.25" fill="#1976D2" fill-rule="evenodd"/><path fill-opacity=".763" d="M10.429 34.975c-6.503.978-9.256 2.486-10.007 5.482-.857 3.412-.242 4.846 8.455 19.724 9.746 16.672 27.276 48.74 47.127 86.211 11.875 22.416 15.081 29.253 14.304 30.5-1.399 2.243-5.928 3.59-25.646 7.631-21.631 4.433-26.869 5.943-29.076 8.382-2.446 2.703-1.193 5.944 2.973 7.684 3.144 1.314 13.038 2.697 28.512 3.985 6.504.541 6.584.584 7.886 4.236 1.848 5.186 4.711 8.967 8.128 10.734 2.514 1.3 9.418 1.475 48.842 1.235l45.913-.279 2.678-2.5c2.926-2.733 6.482-9.02 6.482-11.46 0-1.011.944-1.543 2.75-1.549 5.954-.018 25.717-2.08 29.803-3.109 8.682-2.186 9.933-8.27 2.326-11.314-2.276-.911-12.743-3.419-23.259-5.573-23.371-4.788-27.013-5.961-27.44-8.843-.185-1.25 3.388-9.304 8.5-19.158l8.82-17.001 8.5-2.542c50.515-15.109 79-34.741 79-54.448 0-6.99-2.909-14.218-7.501-18.639-5.899-5.679-12.543-7.818-24.249-7.806-5.088.005-9.25-.125-9.25-.29 0-.164 1.38-2.744 3.067-5.733 4.259-7.546 3.836-11.334-1.567-14.035-3.913-1.956-6.15-2.003-102.5-2.144-54.175-.079-100.782.2-103.571.619m.388 7.884-2.684.641 9.248 16 9.249 16 49.435.5 49.435.5v6l-47.33.26c-26.032.143-47.182.596-47 1.007.181.411 4.155 7.821 8.83 16.467l8.5 15.718 29.891.274c27.204.249 29.991.431 30.995 2.024.805 1.276.805 2.224.001 3.5-.994 1.577-3.829 1.799-28.668 2.25l-27.565.5 7.673 14.5 7.673 14.5 11.154.282c12.198.308 14.468 1.253 12.38 5.154-.99 1.85-2.035 2.064-10.069 2.064-4.931 0-8.965.24-8.965.533 0 .294 1.125 2.754 2.5 5.467 3.468 6.844 3.354 12.3-.335 15.989-3.351 3.351-9.082 5.198-26.665 8.594-18.527 3.578-18.96 4.013-5 5.037 25.25 1.852 148.304.851 146.264-1.19-.208-.208-8.228-1.994-17.821-3.969-19.31-3.976-24.94-6.001-27.487-9.887-3.312-5.055-1.793-9.075 16.278-43.074 20.48-38.531 37.16-68.928 45.945-83.727 3.57-6.015 6.191-11.237 5.823-11.604-.859-.86-198.118-1.163-201.685-.31m202.765 22.126c-2.155.415-4.526 1.586-5.269 2.601-1.288 1.762-13.708 24.166-27.671 49.914-3.579 6.6-6.169 12.123-5.754 12.274 1.242.451 23.432-7.478 34.242-12.235 18.837-8.291 32.644-18.255 36.928-26.652 5.402-10.59.008-22.624-11.558-25.783-4.453-1.217-14.914-1.276-20.918-.119M63 207.277c0 .703.701 2.278 1.557 3.5L66.113 213h88.742l2.072-2.635c1.14-1.449 2.073-3.024 2.073-3.5S137.4 206 111 206c-38.284 0-48 .259-48 1.277" fill="#1976D2" fill-rule="evenodd"/><path fill-opacity=".955" d="M13.228 35.035C1.705 36.245-1.815 39.842 1.719 46.796 2.754 48.833 8.125 58.375 13.653 68 34.291 103.934 71 173.088 71 176.033c0 3.017-4.01 4.352-27.166 9.044C20.062 189.894 15 191.71 15 195.421c0 4.986 6.881 7.106 26.744 8.241l11.42.652 2.268 5.128c2.616 5.914 7.224 10.22 11.847 11.071 1.772.326 22.592.456 46.267.29 49.583-.349 46.865.175 51.311-9.886 2.946-6.665.771-5.906 22.271-7.776 6.395-.557 13.214-1.675 15.154-2.485 4.191-1.751 5.609-5.014 3.292-7.574-2.109-2.33-5.778-3.368-28.286-7.997-19.797-4.072-25.939-6.012-26.891-8.492-.322-.841 3.517-9.231 8.764-19.151l9.339-17.654 18-5.893c20.649-6.761 42.511-17.046 52.702-24.794 12.772-9.71 17.901-19.682 15.845-30.808-1.609-8.71-5.448-14.166-12.507-17.776-5.322-2.722-6.981-3.048-17.139-3.371l-11.247-.357 3.423-6.228c4.023-7.319 4.222-9.462 1.147-12.35-1.736-1.632-4.404-2.382-11.25-3.167-10.429-1.194-182.88-1.202-194.246-.009m-4.691 7.904c-.319.517 3.585 8.167 8.675 17L26.468 76h48.644c43.163 0 48.791.178 49.958 1.584.953 1.149 1.026 2.041.263 3.25-.952 1.51-5.427 1.69-47.692 1.926-25.652.143-46.624.593-46.603 1 .02.407 3.962 7.94 8.758 16.74l8.721 16 29.992.5 29.991.5v5l-27.75.266c-18.316.175-27.75.618-27.75 1.302 0 .57 3.48 7.525 7.734 15.455l7.734 14.418 11.516.279c11.285.274 11.523.328 11.853 2.667.482 3.405-1.264 4.08-10.587 4.098-4.537.008-8.25.441-8.25.962 0 .521 1.125 3.063 2.5 5.649 3.521 6.621 3.359 11.8-.482 15.387-3.335 3.115-8.526 4.693-29.264 8.893-7.561 1.531-14.009 3.045-14.329 3.366-1.67 1.67 19.563 2.258 81.575 2.258 64.917 0 81.339-.554 76.5-2.582-1.1-.46-8.075-2.007-15.5-3.436-24.994-4.811-30.585-7.729-30.409-15.876.075-3.436 2.883-9.495 14.91-32.169 20.649-38.931 36.857-68.584 46.419-84.923 4.478-7.652 7.916-14.498 7.642-15.213C212.157 42.245 192.961 42 110.59 42c-62.21 0-101.697.363-102.053.939m203.662 21.994c-1.815.46-3.436 1-3.601 1.201-1.96 2.388-34.598 62.632-34.598 63.862 0 .506 5.738-1.047 12.75-3.45 31.842-10.911 52.186-22.756 58.972-34.334 5.267-8.988 2.511-20.447-6.09-25.315-3.459-1.959-5.76-2.377-14.132-2.569-5.5-.126-11.485.146-13.301.605M62 206.865c0 .476.933 2.051 2.073 3.5L66.145 213h89.625l1.615-2.465c.888-1.355 1.615-2.93 1.615-3.5 0-.699-15.734-1.035-48.5-1.035-26.675 0-48.5.389-48.5.865" fill="#1976D2" fill-rule="evenodd"/></svg>